<?xml version="1.0" encoding="UTF-8" standalone="no"?>
<!DOCTYPE svg PUBLIC "-//W3C//DTD SVG 1.1//EN"
 "http://www.w3.org/Graphics/SVG/1.1/DTD/svg11.dtd">
<!-- Generated by graphviz version 8.0.5 (20230430.1635)
 -->
<!-- Pages: 1 -->
<svg width="1182pt" height="620pt"
 viewBox="0.00 0.00 1181.94 620.00" xmlns="http://www.w3.org/2000/svg" xmlns:xlink="http://www.w3.org/1999/xlink">
<g id="graph0" class="graph" transform="scale(1 1) rotate(0) translate(4 616)">
<polygon fill="white" stroke="none" points="-4,4 -4,-616 1177.94,-616 1177.94,4 -4,4"/>
<!-- [root] aws_codebuild_project.foododo_landing (expand) -->
<g id="node1" class="node">
<title>[root] aws_codebuild_project.foododo_landing (expand)</title>
<polygon fill="none" stroke="black" points="433.5,-396 196.25,-396 196.25,-360 433.5,-360 433.5,-396"/>
<text text-anchor="middle" x="314.88" y="-372.95" font-family="Times,serif" font-size="14.00">aws_codebuild_project.foododo_landing</text>
</g>
<!-- [root] aws_iam_role.codebuild (expand) -->
<g id="node4" class="node">
<title>[root] aws_iam_role.codebuild (expand)</title>
<polygon fill="none" stroke="black" points="601.62,-324 452.12,-324 452.12,-288 601.62,-288 601.62,-324"/>
<text text-anchor="middle" x="526.88" y="-300.95" font-family="Times,serif" font-size="14.00">aws_iam_role.codebuild</text>
</g>
<!-- [root] aws_codebuild_project.foododo_landing (expand)&#45;&gt;[root] aws_iam_role.codebuild (expand) -->
<g id="edge1" class="edge">
<title>[root] aws_codebuild_project.foododo_landing (expand)&#45;&gt;[root] aws_iam_role.codebuild (expand)</title>
<path fill="none" stroke="black" d="M367.82,-359.52C397.02,-349.88 433.46,-337.84 464.09,-327.73"/>
<polygon fill="black" stroke="black" points="464.83,-330.84 473.23,-324.38 462.64,-324.19 464.83,-330.84"/>
</g>
<!-- [root] var.env_vars -->
<g id="node25" class="node">
<title>[root] var.env_vars</title>
<polygon fill="none" stroke="black" points="351.38,-324 272.38,-324 272.38,-288 357.38,-288 357.38,-318 351.38,-324"/>
<polyline fill="none" stroke="black" points="351.38,-324 351.38,-318"/>
<polyline fill="none" stroke="black" points="357.38,-318 351.38,-318"/>
<text text-anchor="middle" x="314.88" y="-300.95" font-family="Times,serif" font-size="14.00">var.env_vars</text>
</g>
<!-- [root] aws_codebuild_project.foododo_landing (expand)&#45;&gt;[root] var.env_vars -->
<g id="edge2" class="edge">
<title>[root] aws_codebuild_project.foododo_landing (expand)&#45;&gt;[root] var.env_vars</title>
<path fill="none" stroke="black" d="M314.88,-359.7C314.88,-352.24 314.88,-343.32 314.88,-334.97"/>
<polygon fill="black" stroke="black" points="318.38,-335.1 314.88,-325.1 311.38,-335.1 318.38,-335.1"/>
</g>
<!-- [root] aws_codepipeline.pipeline (expand) -->
<g id="node2" class="node">
<title>[root] aws_codepipeline.pipeline (expand)</title>
<polygon fill="none" stroke="black" points="394.88,-468 234.88,-468 234.88,-432 394.88,-432 394.88,-468"/>
<text text-anchor="middle" x="314.88" y="-444.95" font-family="Times,serif" font-size="14.00">aws_codepipeline.pipeline</text>
</g>
<!-- [root] aws_codepipeline.pipeline (expand)&#45;&gt;[root] aws_codebuild_project.foododo_landing (expand) -->
<g id="edge3" class="edge">
<title>[root] aws_codepipeline.pipeline (expand)&#45;&gt;[root] aws_codebuild_project.foododo_landing (expand)</title>
<path fill="none" stroke="black" d="M314.88,-431.7C314.88,-424.24 314.88,-415.32 314.88,-406.97"/>
<polygon fill="black" stroke="black" points="318.38,-407.1 314.88,-397.1 311.38,-407.1 318.38,-407.1"/>
</g>
<!-- [root] aws_iam_role.pipeline (expand) -->
<g id="node5" class="node">
<title>[root] aws_iam_role.pipeline (expand)</title>
<polygon fill="none" stroke="black" points="139.75,-396 0,-396 0,-360 139.75,-360 139.75,-396"/>
<text text-anchor="middle" x="69.88" y="-372.95" font-family="Times,serif" font-size="14.00">aws_iam_role.pipeline</text>
</g>
<!-- [root] aws_codepipeline.pipeline (expand)&#45;&gt;[root] aws_iam_role.pipeline (expand) -->
<g id="edge4" class="edge">
<title>[root] aws_codepipeline.pipeline (expand)&#45;&gt;[root] aws_iam_role.pipeline (expand)</title>
<path fill="none" stroke="black" d="M253.68,-431.52C219.5,-421.75 176.73,-409.53 141.05,-399.34"/>
<polygon fill="black" stroke="black" points="142.29,-395.76 131.71,-396.38 140.36,-402.49 142.29,-395.76"/>
</g>
<!-- [root] aws_s3_bucket.bucket (expand) -->
<g id="node14" class="node">
<title>[root] aws_s3_bucket.bucket (expand)</title>
<polygon fill="none" stroke="black" points="384,-180 245.75,-180 245.75,-144 384,-144 384,-180"/>
<text text-anchor="middle" x="314.88" y="-156.95" font-family="Times,serif" font-size="14.00">aws_s3_bucket.bucket</text>
</g>
<!-- [root] aws_codepipeline.pipeline (expand)&#45;&gt;[root] aws_s3_bucket.bucket (expand) -->
<g id="edge5" class="edge">
<title>[root] aws_codepipeline.pipeline (expand)&#45;&gt;[root] aws_s3_bucket.bucket (expand)</title>
<path fill="none" stroke="black" d="M234.38,-432.12C215.74,-424.28 198.1,-412.8 186.88,-396 138.17,-323.12 232.19,-230.13 283.96,-186.99"/>
<polygon fill="black" stroke="black" points="285.66,-189.3 291.19,-180.26 281.23,-183.88 285.66,-189.3"/>
</g>
<!-- [root] var.GITHUB_TOKEN -->
<g id="node24" class="node">
<title>[root] var.GITHUB_TOKEN</title>
<polygon fill="none" stroke="black" points="585.75,-396 452,-396 452,-360 591.75,-360 591.75,-390 585.75,-396"/>
<polyline fill="none" stroke="black" points="585.75,-396 585.75,-390"/>
<polyline fill="none" stroke="black" points="591.75,-390 585.75,-390"/>
<text text-anchor="middle" x="521.88" y="-372.95" font-family="Times,serif" font-size="14.00">var.GITHUB_TOKEN</text>
</g>
<!-- [root] aws_codepipeline.pipeline (expand)&#45;&gt;[root] var.GITHUB_TOKEN -->
<g id="edge6" class="edge">
<title>[root] aws_codepipeline.pipeline (expand)&#45;&gt;[root] var.GITHUB_TOKEN</title>
<path fill="none" stroke="black" d="M366.58,-431.52C394.96,-421.92 430.35,-409.95 460.18,-399.86"/>
<polygon fill="black" stroke="black" points="461.12,-402.9 469.47,-396.38 458.88,-396.27 461.12,-402.9"/>
</g>
<!-- [root] aws_eip.nat (expand) -->
<g id="node3" class="node">
<title>[root] aws_eip.nat (expand)</title>
<polygon fill="none" stroke="black" points="635.12,-180 554.62,-180 554.62,-144 635.12,-144 635.12,-180"/>
<text text-anchor="middle" x="594.88" y="-156.95" font-family="Times,serif" font-size="14.00">aws_eip.nat</text>
</g>
<!-- [root] provider[&quot;registry.terraform.io/hashicorp/aws&quot;] -->
<g id="node19" class="node">
<title>[root] provider[&quot;registry.terraform.io/hashicorp/aws&quot;]</title>
<polygon fill="none" stroke="black" points="560.88,-108 296.44,-90 560.87,-72 825.31,-90 560.88,-108"/>
<text text-anchor="middle" x="560.88" y="-84.95" font-family="Times,serif" font-size="14.00">provider[&quot;registry.terraform.io/hashicorp/aws&quot;]</text>
</g>
<!-- [root] aws_eip.nat (expand)&#45;&gt;[root] provider[&quot;registry.terraform.io/hashicorp/aws&quot;] -->
<g id="edge7" class="edge">
<title>[root] aws_eip.nat (expand)&#45;&gt;[root] provider[&quot;registry.terraform.io/hashicorp/aws&quot;]</title>
<path fill="none" stroke="black" d="M586.47,-143.7C582.63,-135.78 577.99,-126.23 573.72,-117.44"/>
<polygon fill="black" stroke="black" points="576.47,-116.09 568.95,-108.62 570.17,-119.15 576.47,-116.09"/>
</g>
<!-- [root] aws_iam_role.codebuild (expand)&#45;&gt;[root] provider[&quot;registry.terraform.io/hashicorp/aws&quot;] -->
<g id="edge8" class="edge">
<title>[root] aws_iam_role.codebuild (expand)&#45;&gt;[root] provider[&quot;registry.terraform.io/hashicorp/aws&quot;]</title>
<path fill="none" stroke="black" d="M528,-287.94C530.14,-258.4 535.54,-195.89 545.88,-144 547.54,-135.62 549.88,-126.63 552.21,-118.48"/>
<polygon fill="black" stroke="black" points="555.82,-119.6 555.32,-109.02 549.11,-117.61 555.82,-119.6"/>
</g>
<!-- [root] aws_iam_role.pipeline (expand)&#45;&gt;[root] provider[&quot;registry.terraform.io/hashicorp/aws&quot;] -->
<g id="edge9" class="edge">
<title>[root] aws_iam_role.pipeline (expand)&#45;&gt;[root] provider[&quot;registry.terraform.io/hashicorp/aws&quot;]</title>
<path fill="none" stroke="black" d="M76.66,-359.67C94.98,-315.42 149.98,-197.94 236.88,-144 269.6,-123.69 358.06,-110.05 434.3,-101.7"/>
<polygon fill="black" stroke="black" points="434.4,-105.1 443.97,-100.56 433.65,-98.14 434.4,-105.1"/>
</g>
<!-- [root] aws_iam_role_policy.codebuild (expand) -->
<g id="node6" class="node">
<title>[root] aws_iam_role_policy.codebuild (expand)</title>
<polygon fill="none" stroke="black" points="695.5,-468 506.25,-468 506.25,-432 695.5,-432 695.5,-468"/>
<text text-anchor="middle" x="600.88" y="-444.95" font-family="Times,serif" font-size="14.00">aws_iam_role_policy.codebuild</text>
</g>
<!-- [root] aws_iam_role_policy.codebuild (expand)&#45;&gt;[root] aws_iam_role.codebuild (expand) -->
<g id="edge10" class="edge">
<title>[root] aws_iam_role_policy.codebuild (expand)&#45;&gt;[root] aws_iam_role.codebuild (expand)</title>
<path fill="none" stroke="black" d="M605.36,-431.51C609.2,-412.73 612.46,-382.54 600.88,-360 594.72,-348.02 584.46,-338.15 573.52,-330.3"/>
<polygon fill="black" stroke="black" points="575.93,-327.04 565.66,-324.44 572.07,-332.87 575.93,-327.04"/>
</g>
<!-- [root] aws_iam_role_policy.pipeline (expand) -->
<g id="node7" class="node">
<title>[root] aws_iam_role_policy.pipeline (expand)</title>
<polygon fill="none" stroke="black" points="188.62,-468 9.12,-468 9.12,-432 188.62,-432 188.62,-468"/>
<text text-anchor="middle" x="98.88" y="-444.95" font-family="Times,serif" font-size="14.00">aws_iam_role_policy.pipeline</text>
</g>
<!-- [root] aws_iam_role_policy.pipeline (expand)&#45;&gt;[root] aws_iam_role.pipeline (expand) -->
<g id="edge11" class="edge">
<title>[root] aws_iam_role_policy.pipeline (expand)&#45;&gt;[root] aws_iam_role.pipeline (expand)</title>
<path fill="none" stroke="black" d="M91.71,-431.7C88.51,-423.98 84.67,-414.71 81.11,-406.11"/>
<polygon fill="black" stroke="black" points="84.02,-405 76.96,-397.1 77.56,-407.68 84.02,-405"/>
</g>
<!-- [root] aws_internet_gateway.igw (expand) -->
<g id="node8" class="node">
<title>[root] aws_internet_gateway.igw (expand)</title>
<polygon fill="none" stroke="black" points="1054.88,-252 894.88,-252 894.88,-216 1054.88,-216 1054.88,-252"/>
<text text-anchor="middle" x="974.88" y="-228.95" font-family="Times,serif" font-size="14.00">aws_internet_gateway.igw</text>
</g>
<!-- [root] aws_vpc.main (expand) -->
<g id="node17" class="node">
<title>[root] aws_vpc.main (expand)</title>
<polygon fill="none" stroke="black" points="807.25,-180 712.5,-180 712.5,-144 807.25,-144 807.25,-180"/>
<text text-anchor="middle" x="759.88" y="-156.95" font-family="Times,serif" font-size="14.00">aws_vpc.main</text>
</g>
<!-- [root] aws_internet_gateway.igw (expand)&#45;&gt;[root] aws_vpc.main (expand) -->
<g id="edge12" class="edge">
<title>[root] aws_internet_gateway.igw (expand)&#45;&gt;[root] aws_vpc.main (expand)</title>
<path fill="none" stroke="black" d="M921.18,-215.52C889.64,-205.25 849.78,-192.27 817.57,-181.79"/>
<polygon fill="black" stroke="black" points="819,-178.24 808.41,-178.48 816.83,-184.9 819,-178.24"/>
</g>
<!-- [root] aws_nat_gateway.nat (expand) -->
<g id="node9" class="node">
<title>[root] aws_nat_gateway.nat (expand)</title>
<polygon fill="none" stroke="black" points="786.62,-324 655.12,-324 655.12,-288 786.62,-288 786.62,-324"/>
<text text-anchor="middle" x="720.88" y="-300.95" font-family="Times,serif" font-size="14.00">aws_nat_gateway.nat</text>
</g>
<!-- [root] aws_nat_gateway.nat (expand)&#45;&gt;[root] aws_eip.nat (expand) -->
<g id="edge13" class="edge">
<title>[root] aws_nat_gateway.nat (expand)&#45;&gt;[root] aws_eip.nat (expand)</title>
<path fill="none" stroke="black" d="M662.88,-287.56C644.75,-279.45 626.28,-267.96 613.88,-252 600.47,-234.75 596,-210.16 594.73,-191.2"/>
<polygon fill="black" stroke="black" points="598.19,-191.09 594.3,-181.24 591.19,-191.37 598.19,-191.09"/>
</g>
<!-- [root] aws_subnet.public (expand) -->
<g id="node16" class="node">
<title>[root] aws_subnet.public (expand)</title>
<polygon fill="none" stroke="black" points="877.12,-252 760.62,-252 760.62,-216 877.12,-216 877.12,-252"/>
<text text-anchor="middle" x="818.88" y="-228.95" font-family="Times,serif" font-size="14.00">aws_subnet.public</text>
</g>
<!-- [root] aws_nat_gateway.nat (expand)&#45;&gt;[root] aws_subnet.public (expand) -->
<g id="edge14" class="edge">
<title>[root] aws_nat_gateway.nat (expand)&#45;&gt;[root] aws_subnet.public (expand)</title>
<path fill="none" stroke="black" d="M745.35,-287.52C757.6,-278.76 772.61,-268.04 785.87,-258.58"/>
<polygon fill="black" stroke="black" points="787.61,-260.92 793.71,-252.26 783.54,-255.22 787.61,-260.92"/>
</g>
<!-- [root] aws_route_table.private (expand) -->
<g id="node10" class="node">
<title>[root] aws_route_table.private (expand)</title>
<polygon fill="none" stroke="black" points="793.75,-396 648,-396 648,-360 793.75,-360 793.75,-396"/>
<text text-anchor="middle" x="720.88" y="-372.95" font-family="Times,serif" font-size="14.00">aws_route_table.private</text>
</g>
<!-- [root] aws_route_table.private (expand)&#45;&gt;[root] aws_nat_gateway.nat (expand) -->
<g id="edge15" class="edge">
<title>[root] aws_route_table.private (expand)&#45;&gt;[root] aws_nat_gateway.nat (expand)</title>
<path fill="none" stroke="black" d="M720.88,-359.7C720.88,-352.24 720.88,-343.32 720.88,-334.97"/>
<polygon fill="black" stroke="black" points="724.38,-335.1 720.88,-325.1 717.38,-335.1 724.38,-335.1"/>
</g>
<!-- [root] aws_route_table.public (expand) -->
<g id="node11" class="node">
<title>[root] aws_route_table.public (expand)</title>
<polygon fill="none" stroke="black" points="1043.88,-324 901.88,-324 901.88,-288 1043.88,-288 1043.88,-324"/>
<text text-anchor="middle" x="972.88" y="-300.95" font-family="Times,serif" font-size="14.00">aws_route_table.public</text>
</g>
<!-- [root] aws_route_table.public (expand)&#45;&gt;[root] aws_internet_gateway.igw (expand) -->
<g id="edge16" class="edge">
<title>[root] aws_route_table.public (expand)&#45;&gt;[root] aws_internet_gateway.igw (expand)</title>
<path fill="none" stroke="black" d="M973.37,-287.7C973.58,-280.24 973.84,-271.32 974.08,-262.97"/>
<polygon fill="black" stroke="black" points="977.6,-263.2 974.39,-253.1 970.6,-263 977.6,-263.2"/>
</g>
<!-- [root] aws_route_table_association.private (expand) -->
<g id="node12" class="node">
<title>[root] aws_route_table_association.private (expand)</title>
<polygon fill="none" stroke="black" points="926.12,-468 713.62,-468 713.62,-432 926.12,-432 926.12,-468"/>
<text text-anchor="middle" x="819.88" y="-444.95" font-family="Times,serif" font-size="14.00">aws_route_table_association.private</text>
</g>
<!-- [root] aws_route_table_association.private (expand)&#45;&gt;[root] aws_route_table.private (expand) -->
<g id="edge17" class="edge">
<title>[root] aws_route_table_association.private (expand)&#45;&gt;[root] aws_route_table.private (expand)</title>
<path fill="none" stroke="black" d="M795.15,-431.52C782.77,-422.76 767.61,-412.04 754.22,-402.58"/>
<polygon fill="black" stroke="black" points="756.47,-399.18 746.29,-396.26 752.43,-404.89 756.47,-399.18"/>
</g>
<!-- [root] aws_subnet.private (expand) -->
<g id="node15" class="node">
<title>[root] aws_subnet.private (expand)</title>
<polygon fill="none" stroke="black" points="743,-252 622.75,-252 622.75,-216 743,-216 743,-252"/>
<text text-anchor="middle" x="682.88" y="-228.95" font-family="Times,serif" font-size="14.00">aws_subnet.private</text>
</g>
<!-- [root] aws_route_table_association.private (expand)&#45;&gt;[root] aws_subnet.private (expand) -->
<g id="edge18" class="edge">
<title>[root] aws_route_table_association.private (expand)&#45;&gt;[root] aws_subnet.private (expand)</title>
<path fill="none" stroke="black" d="M822.25,-431.51C825.61,-399.61 828.11,-331.29 795.88,-288 785.11,-273.54 769.41,-262.89 753.12,-255.09"/>
<polygon fill="black" stroke="black" points="755.06,-251.67 744.5,-250.82 752.22,-258.07 755.06,-251.67"/>
</g>
<!-- [root] aws_route_table_association.public (expand) -->
<g id="node13" class="node">
<title>[root] aws_route_table_association.public (expand)</title>
<polygon fill="none" stroke="black" points="1058.25,-396 849.5,-396 849.5,-360 1058.25,-360 1058.25,-396"/>
<text text-anchor="middle" x="953.88" y="-372.95" font-family="Times,serif" font-size="14.00">aws_route_table_association.public</text>
</g>
<!-- [root] aws_route_table_association.public (expand)&#45;&gt;[root] aws_route_table.public (expand) -->
<g id="edge19" class="edge">
<title>[root] aws_route_table_association.public (expand)&#45;&gt;[root] aws_route_table.public (expand)</title>
<path fill="none" stroke="black" d="M958.57,-359.7C960.62,-352.15 963.07,-343.12 965.36,-334.68"/>
<polygon fill="black" stroke="black" points="968.99,-335.67 968.23,-325.1 962.24,-333.84 968.99,-335.67"/>
</g>
<!-- [root] aws_route_table_association.public (expand)&#45;&gt;[root] aws_subnet.public (expand) -->
<g id="edge20" class="edge">
<title>[root] aws_route_table_association.public (expand)&#45;&gt;[root] aws_subnet.public (expand)</title>
<path fill="none" stroke="black" d="M932.22,-359.65C920.21,-349.67 905.24,-336.63 892.88,-324 873.28,-303.97 853.07,-279.36 838.74,-261.09"/>
<polygon fill="black" stroke="black" points="840.91,-259.18 832.01,-253.43 835.38,-263.48 840.91,-259.18"/>
</g>
<!-- [root] aws_s3_bucket.bucket (expand)&#45;&gt;[root] provider[&quot;registry.terraform.io/hashicorp/aws&quot;] -->
<g id="edge21" class="edge">
<title>[root] aws_s3_bucket.bucket (expand)&#45;&gt;[root] provider[&quot;registry.terraform.io/hashicorp/aws&quot;]</title>
<path fill="none" stroke="black" d="M376.32,-143.52C414.43,-132.67 463.17,-118.8 500.99,-108.04"/>
<polygon fill="black" stroke="black" points="501.69,-111.2 510.35,-105.09 499.77,-104.46 501.69,-111.2"/>
</g>
<!-- [root] aws_subnet.private (expand)&#45;&gt;[root] aws_vpc.main (expand) -->
<g id="edge22" class="edge">
<title>[root] aws_subnet.private (expand)&#45;&gt;[root] aws_vpc.main (expand)</title>
<path fill="none" stroke="black" d="M701.91,-215.7C711.26,-207.2 722.68,-196.81 732.91,-187.51"/>
<polygon fill="black" stroke="black" points="734.75,-190.66 739.79,-181.35 730.04,-185.48 734.75,-190.66"/>
</g>
<!-- [root] aws_subnet.public (expand)&#45;&gt;[root] aws_vpc.main (expand) -->
<g id="edge23" class="edge">
<title>[root] aws_subnet.public (expand)&#45;&gt;[root] aws_vpc.main (expand)</title>
<path fill="none" stroke="black" d="M804.29,-215.7C797.36,-207.47 788.94,-197.48 781.3,-188.42"/>
<polygon fill="black" stroke="black" points="783.41,-186.49 774.29,-181.1 778.06,-191.01 783.41,-186.49"/>
</g>
<!-- [root] aws_vpc.main (expand)&#45;&gt;[root] provider[&quot;registry.terraform.io/hashicorp/aws&quot;] -->
<g id="edge24" class="edge">
<title>[root] aws_vpc.main (expand)&#45;&gt;[root] provider[&quot;registry.terraform.io/hashicorp/aws&quot;]</title>
<path fill="none" stroke="black" d="M712.21,-144.23C682.15,-133.66 643.33,-120 612.53,-109.17"/>
<polygon fill="black" stroke="black" points="614.01,-105.63 603.42,-105.61 611.69,-112.23 614.01,-105.63"/>
</g>
<!-- [root] module.ecr.aws_ecr_repository.this[0] (orphan) -->
<g id="node18" class="node">
<title>[root] module.ecr.aws_ecr_repository.this[0] (orphan)</title>
<polygon fill="none" stroke="black" points="1083.25,-180 874.5,-180 874.5,-144 1083.25,-144 1083.25,-180"/>
<text text-anchor="middle" x="978.88" y="-156.95" font-family="Times,serif" font-size="14.00">module.ecr.aws_ecr_repository.this</text>
</g>
<!-- [root] module.ecr.aws_ecr_repository.this[0] (orphan)&#45;&gt;[root] provider[&quot;registry.terraform.io/hashicorp/aws&quot;] -->
<g id="edge25" class="edge">
<title>[root] module.ecr.aws_ecr_repository.this[0] (orphan)&#45;&gt;[root] provider[&quot;registry.terraform.io/hashicorp/aws&quot;]</title>
<path fill="none" stroke="black" d="M874.47,-143.52C803.92,-131.7 711.95,-116.3 645.87,-105.23"/>
<polygon fill="black" stroke="black" points="646.53,-101.63 636.09,-103.43 645.37,-108.53 646.53,-101.63"/>
</g>
<!-- [root] var.AWS_ACCESS_KEY_ID -->
<g id="node20" class="node">
<title>[root] var.AWS_ACCESS_KEY_ID</title>
<polygon fill="none" stroke="black" points="474.62,-36 301.12,-36 301.12,0 480.62,0 480.62,-30 474.62,-36"/>
<polyline fill="none" stroke="black" points="474.62,-36 474.62,-30"/>
<polyline fill="none" stroke="black" points="480.62,-30 474.62,-30"/>
<text text-anchor="middle" x="390.88" y="-12.95" font-family="Times,serif" font-size="14.00">var.AWS_ACCESS_KEY_ID</text>
</g>
<!-- [root] provider[&quot;registry.terraform.io/hashicorp/aws&quot;]&#45;&gt;[root] var.AWS_ACCESS_KEY_ID -->
<g id="edge32" class="edge">
<title>[root] provider[&quot;registry.terraform.io/hashicorp/aws&quot;]&#45;&gt;[root] var.AWS_ACCESS_KEY_ID</title>
<path fill="none" stroke="black" d="M524.41,-73.98C500.81,-64.27 469.7,-51.46 443.45,-40.65"/>
<polygon fill="black" stroke="black" points="444.86,-37.03 434.28,-36.46 442.2,-43.51 444.86,-37.03"/>
</g>
<!-- [root] var.AWS_REGION -->
<g id="node22" class="node">
<title>[root] var.AWS_REGION</title>
<polygon fill="none" stroke="black" points="616.88,-36 498.88,-36 498.88,0 622.88,0 622.88,-30 616.88,-36"/>
<polyline fill="none" stroke="black" points="616.88,-36 616.88,-30"/>
<polyline fill="none" stroke="black" points="622.88,-30 616.88,-30"/>
<text text-anchor="middle" x="560.88" y="-12.95" font-family="Times,serif" font-size="14.00">var.AWS_REGION</text>
</g>
<!-- [root] provider[&quot;registry.terraform.io/hashicorp/aws&quot;]&#45;&gt;[root] var.AWS_REGION -->
<g id="edge33" class="edge">
<title>[root] provider[&quot;registry.terraform.io/hashicorp/aws&quot;]&#45;&gt;[root] var.AWS_REGION</title>
<path fill="none" stroke="black" d="M560.88,-71.7C560.88,-64.24 560.88,-55.32 560.88,-46.97"/>
<polygon fill="black" stroke="black" points="564.38,-47.1 560.88,-37.1 557.38,-47.1 564.38,-47.1"/>
</g>
<!-- [root] var.AWS_SECRET_ACCESS_KEY -->
<g id="node23" class="node">
<title>[root] var.AWS_SECRET_ACCESS_KEY</title>
<polygon fill="none" stroke="black" points="850.62,-36 641.12,-36 641.12,0 856.62,0 856.62,-30 850.62,-36"/>
<polyline fill="none" stroke="black" points="850.62,-36 850.62,-30"/>
<polyline fill="none" stroke="black" points="856.62,-30 850.62,-30"/>
<text text-anchor="middle" x="748.88" y="-12.95" font-family="Times,serif" font-size="14.00">var.AWS_SECRET_ACCESS_KEY</text>
</g>
<!-- [root] provider[&quot;registry.terraform.io/hashicorp/aws&quot;]&#45;&gt;[root] var.AWS_SECRET_ACCESS_KEY -->
<g id="edge34" class="edge">
<title>[root] provider[&quot;registry.terraform.io/hashicorp/aws&quot;]&#45;&gt;[root] var.AWS_SECRET_ACCESS_KEY</title>
<path fill="none" stroke="black" d="M600.29,-74.33C626.87,-64.43 662.37,-51.21 692,-40.18"/>
<polygon fill="black" stroke="black" points="693.06,-43.14 701.21,-36.38 690.62,-36.58 693.06,-43.14"/>
</g>
<!-- [root] var.AWS_ACCOUNT_ID -->
<g id="node21" class="node">
<title>[root] var.AWS_ACCOUNT_ID</title>
<polygon fill="none" stroke="black" points="447.5,-540 294.25,-540 294.25,-504 453.5,-504 453.5,-534 447.5,-540"/>
<polyline fill="none" stroke="black" points="447.5,-540 447.5,-534"/>
<polyline fill="none" stroke="black" points="453.5,-534 447.5,-534"/>
<text text-anchor="middle" x="373.88" y="-516.95" font-family="Times,serif" font-size="14.00">var.AWS_ACCOUNT_ID</text>
</g>
<!-- [root] provider[&quot;registry.terraform.io/hashicorp/aws&quot;] (close) -->
<g id="node26" class="node">
<title>[root] provider[&quot;registry.terraform.io/hashicorp/aws&quot;] (close)</title>
<ellipse fill="none" stroke="black" cx="709.88" cy="-522" rx="238.16" ry="18"/>
<text text-anchor="middle" x="709.88" y="-516.95" font-family="Times,serif" font-size="14.00">[root] provider[&quot;registry.terraform.io/hashicorp/aws&quot;] (close)</text>
</g>
<!-- [root] provider[&quot;registry.terraform.io/hashicorp/aws&quot;] (close)&#45;&gt;[root] aws_codepipeline.pipeline (expand) -->
<g id="edge26" class="edge">
<title>[root] provider[&quot;registry.terraform.io/hashicorp/aws&quot;] (close)&#45;&gt;[root] aws_codepipeline.pipeline (expand)</title>
<path fill="none" stroke="black" d="M619.25,-504.94C555.28,-493.6 469.9,-478.47 405.85,-467.12"/>
<polygon fill="black" stroke="black" points="406.82,-463.56 396.36,-465.26 405.59,-470.45 406.82,-463.56"/>
</g>
<!-- [root] provider[&quot;registry.terraform.io/hashicorp/aws&quot;] (close)&#45;&gt;[root] aws_iam_role_policy.codebuild (expand) -->
<g id="edge27" class="edge">
<title>[root] provider[&quot;registry.terraform.io/hashicorp/aws&quot;] (close)&#45;&gt;[root] aws_iam_role_policy.codebuild (expand)</title>
<path fill="none" stroke="black" d="M682.93,-503.7C669.04,-494.78 651.92,-483.78 636.91,-474.14"/>
<polygon fill="black" stroke="black" points="639.19,-470.81 628.89,-468.35 635.41,-476.7 639.19,-470.81"/>
</g>
<!-- [root] provider[&quot;registry.terraform.io/hashicorp/aws&quot;] (close)&#45;&gt;[root] aws_iam_role_policy.pipeline (expand) -->
<g id="edge28" class="edge">
<title>[root] provider[&quot;registry.terraform.io/hashicorp/aws&quot;] (close)&#45;&gt;[root] aws_iam_role_policy.pipeline (expand)</title>
<path fill="none" stroke="black" d="M572.87,-506.88C475.89,-496.67 342.83,-482.23 225.88,-468 217.4,-466.97 208.61,-465.86 199.79,-464.73"/>
<polygon fill="black" stroke="black" points="200.4,-461.15 190.03,-463.34 199.5,-468.09 200.4,-461.15"/>
</g>
<!-- [root] provider[&quot;registry.terraform.io/hashicorp/aws&quot;] (close)&#45;&gt;[root] aws_route_table_association.private (expand) -->
<g id="edge29" class="edge">
<title>[root] provider[&quot;registry.terraform.io/hashicorp/aws&quot;] (close)&#45;&gt;[root] aws_route_table_association.private (expand)</title>
<path fill="none" stroke="black" d="M737.07,-503.7C751.08,-494.78 768.36,-483.78 783.51,-474.14"/>
<polygon fill="black" stroke="black" points="785.06,-476.67 791.62,-468.35 781.3,-470.76 785.06,-476.67"/>
</g>
<!-- [root] provider[&quot;registry.terraform.io/hashicorp/aws&quot;] (close)&#45;&gt;[root] aws_route_table_association.public (expand) -->
<g id="edge30" class="edge">
<title>[root] provider[&quot;registry.terraform.io/hashicorp/aws&quot;] (close)&#45;&gt;[root] aws_route_table_association.public (expand)</title>
<path fill="none" stroke="black" d="M823.23,-505.76C870.66,-497.13 918.55,-484.67 934.88,-468 950.49,-452.05 954.66,-426.6 955.26,-406.99"/>
<polygon fill="black" stroke="black" points="958.76,-407.24 955.26,-397.24 951.76,-407.24 958.76,-407.24"/>
</g>
<!-- [root] provider[&quot;registry.terraform.io/hashicorp/aws&quot;] (close)&#45;&gt;[root] module.ecr.aws_ecr_repository.this[0] (orphan) -->
<g id="edge31" class="edge">
<title>[root] provider[&quot;registry.terraform.io/hashicorp/aws&quot;] (close)&#45;&gt;[root] module.ecr.aws_ecr_repository.this[0] (orphan)</title>
<path fill="none" stroke="black" d="M823.19,-505.72C866.13,-497.61 914.78,-485.57 956.88,-468 1021.15,-441.17 1085.88,-448.65 1085.88,-379 1085.88,-379 1085.88,-379 1085.88,-305 1085.88,-264.25 1087.81,-248.98 1063.88,-216 1055,-203.77 1042.35,-193.73 1029.52,-185.81"/>
<polygon fill="black" stroke="black" points="1031.6,-182.4 1021.19,-180.42 1028.1,-188.46 1031.6,-182.4"/>
</g>
<!-- [root] root -->
<g id="node27" class="node">
<title>[root] root</title>
<ellipse fill="none" stroke="black" cx="709.88" cy="-594" rx="49.3" ry="18"/>
<text text-anchor="middle" x="709.88" y="-588.95" font-family="Times,serif" font-size="14.00">[root] root</text>
</g>
<!-- [root] root&#45;&gt;[root] var.AWS_ACCOUNT_ID -->
<g id="edge37" class="edge">
<title>[root] root&#45;&gt;[root] var.AWS_ACCOUNT_ID</title>
<path fill="none" stroke="black" d="M667.66,-584.21C616.88,-573.63 530.24,-555.58 464.16,-541.81"/>
<polygon fill="black" stroke="black" points="465.24,-538.25 454.74,-539.64 463.82,-545.1 465.24,-538.25"/>
</g>
<!-- [root] root&#45;&gt;[root] provider[&quot;registry.terraform.io/hashicorp/aws&quot;] (close) -->
<g id="edge36" class="edge">
<title>[root] root&#45;&gt;[root] provider[&quot;registry.terraform.io/hashicorp/aws&quot;] (close)</title>
<path fill="none" stroke="black" d="M709.88,-575.7C709.88,-568.24 709.88,-559.32 709.88,-550.97"/>
<polygon fill="black" stroke="black" points="713.38,-551.1 709.88,-541.1 706.38,-551.1 713.38,-551.1"/>
</g>
<!-- [root] module.ecr (close) -->
<g id="node28" class="node">
<title>[root] module.ecr (close)</title>
<ellipse fill="none" stroke="black" cx="1069.88" cy="-522" rx="104.07" ry="18"/>
<text text-anchor="middle" x="1069.88" y="-516.95" font-family="Times,serif" font-size="14.00">[root] module.ecr (close)</text>
</g>
<!-- [root] root&#45;&gt;[root] module.ecr (close) -->
<g id="edge35" class="edge">
<title>[root] root&#45;&gt;[root] module.ecr (close)</title>
<path fill="none" stroke="black" d="M752.59,-584.7C811.43,-573.25 918.48,-552.44 991.83,-538.18"/>
<polygon fill="black" stroke="black" points="992.25,-541.46 1001.4,-536.12 990.91,-534.59 992.25,-541.46"/>
</g>
</g>
</svg>
